HIERARCHY
ROOT Hips
{
	OFFSET 0.00000 0.00000 0.00000
	CHANNELS 6 Xposition Yposition Zposition Zrotation Yrotation Xrotation 
	JOINT LHipJoint
	{
		OFFSET 0 0 0
		CHANNELS 3 Zrotation Yrotation Xrotation
		JOINT LeftHip
		{
			OFFSET 1.53139 -1.83434 0.76626
			CHANNELS 3 Zrotation Yrotation Xrotation
			JOINT LeftKnee
			{
				OFFSET 2.56112 -7.03663 0.00000
				CHANNELS 3 Zrotation Yrotation Xrotation
				JOINT LeftAnkle
				{
					OFFSET 2.59983 -7.14299 0.00000
					CHANNELS 3 Zrotation Yrotation Xrotation
					JOINT LeftToe
					{
						OFFSET 0.13742 -0.37757 2.00054
						CHANNELS 3 Zrotation Yrotation Xrotation
						End Site
						{
							OFFSET 0.00000 -0.00000 1.02897
						}
					}
				}
			}
		}
	}
	JOINT RHipJoint
	{
		OFFSET 0 0 0
		CHANNELS 3 Zrotation Yrotation Xrotation
		JOINT RightHip
		{
			OFFSET -1.40122 -1.83435 0.76627
			CHANNELS 3 Zrotation Yrotation Xrotation
			JOINT RightKnee
			{
				OFFSET -2.54052 -6.98003 0.00000
				CHANNELS 3 Zrotation Yrotation Xrotation
				JOINT RightAnkle
				{
					OFFSET -2.63179 -7.23079 0.00000
					CHANNELS 3 Zrotation Yrotation Xrotation
					JOINT RightToe
					{
						OFFSET -0.24131 -0.66299 2.03908
						CHANNELS 3 Zrotation Yrotation Xrotation
						End Site
						{
							OFFSET -0.00000 -0.00000 1.07391
						}
					}
				}
			}
		}
	}
	JOINT lowerback
	{
		OFFSET 0 0 0
		CHANNELS 3 Zrotation Yrotation Xrotation
		JOINT Chest
		{
			OFFSET 0.01174 2.10302 -0.29778
			CHANNELS 3 Zrotation Yrotation Xrotation
			JOINT Chest2
			{
				OFFSET 0.00772 2.13227 -0.01247
				CHANNELS 3 Zrotation Yrotation Xrotation
				JOINT lowerneck
				{
					OFFSET 0 0 0
					CHANNELS 3 Zrotation Yrotation Xrotation
					JOINT Neck
					{
						OFFSET -0.09219 1.60848 0.31481
						CHANNELS 3 Zrotation Yrotation Xrotation
						JOINT Head
						{
							OFFSET 0.13974 1.65456 -0.31134
							CHANNELS 3 Zrotation Yrotation Xrotation
							End Site
							{
								OFFSET 0.04742 1.69515 -0.14578
							}
						}
					}
				}
				JOINT LeftCollar
				{
					OFFSET 0 0 0
					CHANNELS 3 Zrotation Yrotation Xrotation
					JOINT LeftShoulder
					{
						OFFSET 3.24909 1.02882 -0.23993
CHANNELS 3 Zrotation Xrotation Yrotation
						JOINT LeftElbow
						{
OFFSET 0 -5.329550 -0.000000
CHANNELS 3 Zrotation Xrotation Yrotation
							JOINT LeftWrist
							{
OFFSET 0 -3.692320 -0.000000
CHANNELS 3 Zrotation Xrotation Yrotation
								JOINT lhand
								{
									OFFSET 0 0 0
CHANNELS 3 Zrotation Xrotation Yrotation
									JOINT LFingers
									{
OFFSET 0 -0.536600 -0.000000
CHANNELS 3 Zrotation Xrotation Yrotation
										End Site
										{
OFFSET 0 -0.432620 -0.000000
										}
									}
								}
								JOINT LThumb
								{
OFFSET 0 0.000000 0.000000
CHANNELS 3 Zrotation Xrotation Yrotation
									End Site
									{
OFFSET 0 -0.439220 0.439220
									}
								}
							}
						}
					}
				}
				JOINT RightCollar
				{
					OFFSET 0 0 0
					CHANNELS 3 Zrotation Yrotation Xrotation
					JOINT RightShoulder
					{
						OFFSET -3.21387 0.93002 -0.34594
CHANNELS 3 Zrotation Xrotation Yrotation
						JOINT RightElbow
						{
OFFSET 0 -5.234310 0.000000
CHANNELS 3 Zrotation Xrotation Yrotation
							JOINT RightWrist
							{
OFFSET 0 -3.553010 -0.000000
CHANNELS 3 Zrotation Xrotation Yrotation
								JOINT rhand
								{
									OFFSET 0 0 0
CHANNELS 3 Zrotation Xrotation Yrotation
									JOINT RFingers
									{
OFFSET 0 -0.772520 -0.000000
CHANNELS 3 Zrotation Xrotation Yrotation
										End Site
										{
OFFSET 0 -0.622830 -0.000000
										}
									}
								}
								JOINT RThumb
								{
OFFSET 0 0.000000 0.000000
CHANNELS 3 Zrotation Xrotation Yrotation
									End Site
									{
OFFSET 0 -0.632340 0.632340
									}
								}
							}
						}
					}
				}
			}
		}
	}
}
MOTION
Frames: 4
Frame Time: 0.008333333333333333
1.024981 18.194467 0.955187 179.596000 -2.983732 -181.080940 0.000000 0.000000 0.000000 -22.264221 -9.249605 11.816966 0.000000 0.000000 0.000000 -0.006133 2.283961 -2.763013 0.026813 1.057657 2.907546 0.000000 0.000000 0.000000 19.447412 0.030458 -1.111907 -1.100960 -6.667174 18.733114 -0.443853 -4.055035 -14.729689 -0.035880 1.222534 -3.361268 -0.423427 0.650035 7.945024 0.491086 0.822926 -0.079569 0.651553 0.410983 -4.553507 -13.216661 -6.417434 -21.237374 10.930601 -9.245728 27.497202 4.812250 -4.388314 14.109436 0.000000 0.000000 0.000000 1.300577 6.534066 -24.423524 17.146168 -27.050042 4.153594 21.906673 13.507042 -23.617420 0.000000 0.000000 0.000000 -7.125000 0.000000 0.000000 -7.845105 55.042187 1.943479 0.000000 0.000000 0.000000 0.352561 3.228865 20.152686 -17.602543 -27.645248 -4.363212 -15.088061 4.368410 -7.118498 0.000000 0.000000 0.000000 7.125000 0.000000 0.000000 8.553566 22.633301 4.653734
1.012862 18.196519 0.946201 179.614583 -3.094626 -180.968609 0.000000 0.000000 0.000000 -22.352758 -9.698788 11.884337 0.000000 0.000000 0.000000 -0.010719 2.565327 -2.842553 0.026460 1.049865 2.886035 0.000000 0.000000 0.000000 19.405866 -0.047460 -1.209972 -1.098300 -6.659301 18.709861 -0.448740 -3.992971 -14.752972 -0.033959 1.189118 -3.269340 -0.458109 0.639786 7.896680 0.516557 0.811707 -0.208619 0.698481 0.408923 -4.661558 -13.164367 -6.342333 -21.069354 10.836847 -9.162150 27.532909 4.783502 -4.369141 14.065985 0.000000 0.000000 0.000000 1.270458 6.766935 -24.571854 17.239580 -27.172494 4.196171 21.707182 13.281002 -23.783456 0.000000 0.000000 0.000000 -7.125000 0.000000 0.000000 -8.119031 55.173358 2.038056 0.000000 0.000000 0.000000 0.260088 3.405241 20.109894 -17.570380 -27.603465 -4.348349 -15.059913 4.436439 -7.061223 0.000000 0.000000 0.000000 7.125000 0.000000 0.000000 8.576456 22.692796 4.654647
1.004869 18.195769 0.939302 179.592012 -3.254205 -181.039990 0.000000 0.000000 0.000000 -22.501219 -10.122823 12.145169 0.000000 0.000000 0.000000 -0.016598 2.903368 -2.963054 0.039396 1.279874 3.519236 0.000000 0.000000 0.000000 19.368916 -0.116761 -1.072266 -1.093735 -6.646006 18.670617 -0.446802 -4.129850 -14.821325 -0.033331 1.178096 -3.238964 -0.532070 0.594285 7.908785 0.510029 0.742495 -0.160856 0.741675 0.375514 -4.618301 -13.140222 -6.298415 -21.141869 10.871480 -9.122561 27.609406 4.803471 -4.346048 14.108769 0.000000 0.000000 0.000000 1.222899 6.751352 -24.470991 17.237980 -27.170418 4.195440 21.619386 13.391122 -23.962072 0.000000 0.000000 0.000000 -7.125000 0.000000 0.000000 -8.282845 55.339423 2.112915 0.000000 0.000000 0.000000 0.268872 3.259083 19.930370 -17.448324 -27.444964 -4.291911 -14.978762 4.745371 -6.838438 0.000000 0.000000 0.000000 7.125000 0.000000 0.000000 8.644809 22.923592 4.646302
0.994658 18.198096 0.932310 179.656474 -3.292119 -180.926656 0.000000 0.000000 0.000000 -22.518865 -10.502259 12.197519 0.000000 0.000000 0.000000 -0.023024 3.209348 -3.035011 0.031551 1.145972 3.150543 0.000000 0.000000 0.000000 19.434447 0.002315 -1.145385 -1.094312 -6.647629 18.675521 -0.390473 -5.024205 -14.730655 -0.035463 1.215435 -3.341779 -0.516072 0.580878 7.760872 0.524109 0.728075 -0.162637 0.750279 0.368369 -4.536640 -13.113415 -6.284406 -21.132644 10.874439 -9.086815 27.507194 4.804644 -4.321779 14.055968 0.000000 0.000000 0.000000 1.172896 6.766483 -24.220723 17.239887 -27.172890 4.196257 21.412078 13.489755 -23.714339 0.000000 0.000000 0.000000 -7.125000 0.000000 0.000000 -8.398356 55.042898 2.082122 0.000000 0.000000 0.000000 0.275582 3.177473 19.833855 -17.441615 -27.436180 -4.288798 -14.666459 5.031878 -6.481487 0.000000 0.000000 0.000000 7.125000 0.000000 0.000000 8.889571 23.298645 4.703317
